<?xml version="1.0" ?><svg fill="none" height="24" viewBox="0 0 24 24" width="24" xmlns="http://www.w3.org/2000/svg"><path clip-rule="evenodd" d="M9.76909 8.05651C9.93446 7.97041 10.134 7.98347 10.2867 8.09039L15.2867 11.5904C15.4204 11.6839 15.5 11.8368 15.5 12C15.5 12.1632 15.4204 12.3161 15.2867 12.4096L10.2867 15.9096C10.134 16.0165 9.93446 16.0296 9.76909 15.9435C9.60373 15.8574 9.5 15.6864 9.5 15.5V8.5C9.5 8.31356 9.60373 8.14261 9.76909 8.05651ZM10.5 9.46033V14.5397L14.1281 12L10.5 9.46033Z" fill="black" fill-rule="evenodd"/><path clip-rule="evenodd" d="M12 2.5C6.75329 2.5 2.5 6.75329 2.5 12C2.5 17.2467 6.75329 21.5 12 21.5C17.2467 21.5 21.5 17.2467 21.5 12C21.5 6.75329 17.2467 2.5 12 2.5ZM1.5 12C1.5 6.20101 6.20101 1.5 12 1.5C17.799 1.5 22.5 6.20101 22.5 12C22.5 17.799 17.799 22.5 12 22.5C6.20101 22.5 1.5 17.799 1.5 12Z" fill="black" fill-rule="evenodd"/><path clip-rule="evenodd" d="M12 6C8.68629 6 6 8.68629 6 12C6 15.3137 8.68629 18 12 18C15.3137 18 18 15.3137 18 12C18 8.68629 15.3137 6 12 6ZM5 12C5 8.13401 8.13401 5 12 5C15.866 5 19 8.13401 19 12C19 15.866 15.866 19 12 19C8.13401 19 5 15.866 5 12Z" fill="black" fill-rule="evenodd"/></svg>